<?xml version="1.0" encoding="UTF-8" standalone="no"?>
<!DOCTYPE svg PUBLIC "-//W3C//DTD SVG 1.1//EN" "http://www.w3.org/Graphics/SVG/1.1/DTD/svg11.dtd">
<svg width="100%" height="100%" viewBox="0 0 828 563" version="1.1" xmlns="http://www.w3.org/2000/svg" xmlns:xlink="http://www.w3.org/1999/xlink" xml:space="preserve" xmlns:serif="http://www.serif.com/" style="fill-rule:evenodd;clip-rule:evenodd;stroke-linejoin:round;stroke-miterlimit:2;">
    <g transform="matrix(6.05238e-17,-0.982519,1.03286,6.35886e-17,422.571,424.006)">
        <path d="M234.603,17.863C123.838,17.863 37.662,100.879 37.662,203.459C37.662,302.615 38.121,369.197 38.121,369.197C38.121,383.208 52.717,392.552 68.041,392.552C83.345,392.552 97.96,383.283 97.96,369.32L97.944,204.689C97.944,140.321 158.532,82.722 234.603,82.722C310.675,82.722 371.265,140.321 371.265,204.689C371.265,272.687 371.246,369.319 371.246,369.319C371.246,383.29 385.853,392.552 401.169,392.552C416.269,392.552 430.634,383.688 431.086,369.574C431.092,368.718 431.547,302.839 431.547,203.459C431.547,100.879 345.369,17.863 234.603,17.863Z" style="fill:rgb(44,51,51);fill-rule:nonzero;"/>
    </g>
    <g transform="matrix(0.982519,3.61855e-19,-3.44219e-19,1.03286,-37.0249,-18.448)">
        <path d="M234.603,17.863C123.838,17.863 37.662,100.879 37.662,203.459C37.662,302.615 38.121,369.197 38.121,369.197C38.121,383.208 52.717,392.552 68.041,392.552C83.345,392.552 97.96,383.283 97.96,369.32L97.944,204.689C97.944,140.321 158.532,82.722 234.603,82.722C310.675,82.722 371.265,140.321 371.265,204.689C371.265,272.687 371.246,369.319 371.246,369.319C371.246,383.29 385.853,392.552 401.169,392.552C416.269,392.552 430.634,383.688 431.086,369.574C431.092,368.718 431.547,302.839 431.547,203.459C431.547,100.879 345.369,17.863 234.603,17.863Z" style="fill:rgb(44,51,51);fill-rule:nonzero;"/>
    </g>
    <g transform="matrix(1.70835,0,0,0.502999,145.122,71.0766)">
        <path d="M-84.961,800.295L-78.406,800.295L-78.406,831.306C-75.784,819.432 -72.88,810.552 -69.696,804.668C-66.512,798.784 -63.047,795.842 -59.301,795.842C-55.493,795.842 -52.113,799.128 -49.163,805.702C-46.213,812.275 -44.036,821.128 -42.631,832.261C-41.226,843.393 -40.524,860.728 -40.524,884.265L-40.524,973.324L-47.08,973.324L-47.08,890.785C-47.08,870.853 -47.323,857.547 -47.809,850.868C-48.568,839.417 -50.025,830.803 -52.18,825.024C-54.334,819.246 -57.144,816.357 -60.609,816.357C-64.575,816.357 -68.126,820.81 -71.264,829.716C-74.402,838.622 -76.47,849.648 -77.469,862.795C-78.094,871.383 -78.406,887.075 -78.406,909.869L-78.406,973.324L-84.961,973.324L-84.961,800.295Z" style="fill:rgb(44,51,51);fill-rule:nonzero;"/>
        <path d="M26.485,915.913L32.011,925.773C30.198,937.86 28.105,947.614 25.73,955.035C23.356,962.457 20.684,968.103 17.716,971.973C14.747,975.842 11.388,977.777 7.639,977.777C-0.672,977.777 -7.171,968.527 -11.858,950.026C-16.545,931.525 -18.889,910.612 -18.889,887.287C-18.889,865.34 -16.905,845.778 -12.937,828.603C-7.906,806.762 -1.173,795.842 7.263,795.842C15.949,795.842 22.886,807.027 28.072,829.398C31.759,845.195 33.634,864.916 33.696,888.559L-12.146,888.559C-12.021,908.657 -10.13,925.132 -6.473,937.984C-2.817,950.836 1.7,957.262 7.076,957.262C9.67,957.262 12.194,955.73 14.647,952.667C17.101,949.604 19.187,945.538 20.906,940.469C22.625,935.4 24.485,927.214 26.485,915.913ZM26.485,869.316C25.61,857.441 24.336,847.952 22.664,840.848C20.992,833.745 18.78,828.02 16.03,823.673C13.279,819.326 10.388,817.152 7.357,817.152C2.356,817.152 -1.942,822.612 -5.536,833.533C-8.162,841.485 -10.147,853.412 -11.49,869.316L26.485,869.316Z" style="fill:rgb(44,51,51);fill-rule:nonzero;"/>
        <path d="M50.181,800.295L58.047,800.295L71.597,863.593L85.005,800.295L92.886,800.295L75.545,882.033L95.086,973.324L87.102,973.324L71.595,900.653L56.178,973.324L48.354,973.324L67.657,882.195L50.181,800.295Z" style="fill:rgb(44,51,51);fill-rule:nonzero;"/>
        <path d="M117.799,736.045L124.354,736.045L124.354,800.295L134.749,800.295L134.749,819.538L124.354,819.538L124.354,973.324L117.799,973.324L117.799,819.538L108.855,819.538L108.855,800.295L117.799,800.295L117.799,736.045Z" style="fill:rgb(44,51,51);fill-rule:nonzero;"/>
        <path d="M204.1,836.236L198.902,847.21C194.412,826.959 188.285,816.834 180.521,816.834C174.316,816.834 169.164,823.612 165.063,837.167C160.963,850.722 158.913,867.19 158.913,886.571C158.913,899.174 159.856,911.036 161.743,922.155C163.629,933.274 166.217,941.905 169.507,948.048C172.796,954.19 176.483,957.262 180.568,957.262C188.051,957.262 194.163,947.137 198.902,926.886L204.1,938.496C201.665,950.95 198.395,960.611 194.29,967.477C190.185,974.344 185.51,977.777 180.266,977.777C172.212,977.777 165.531,969.083 160.224,951.696C154.917,934.308 152.264,913.156 152.264,888.241C152.264,871.489 153.505,855.93 155.987,841.564C158.468,827.198 161.879,815.986 166.218,807.928C170.557,799.87 175.411,795.842 180.781,795.842C184.152,795.842 187.407,797.591 190.544,801.09C193.681,804.589 196.342,809.148 198.528,814.767C200.713,820.386 202.57,827.543 204.1,836.236Z" style="fill:rgb(44,51,51);fill-rule:nonzero;"/>
        <path d="M277.524,800.295L277.524,973.324L271.062,973.324L271.062,943.585C268.315,954.929 265.232,963.464 261.814,969.189C258.396,974.915 254.658,977.777 250.599,977.777C243.388,977.777 237.231,968.898 232.127,951.139C227.023,933.38 224.471,911.778 224.471,886.332C224.471,861.417 227.046,840.106 232.197,822.4C237.348,804.695 243.544,795.842 250.787,795.842C254.97,795.842 258.755,798.863 262.142,804.907C265.529,810.95 268.502,820.015 271.062,832.102L271.062,800.295L277.524,800.295ZM251.325,817.311C247.677,817.311 244.31,820.356 241.223,826.446C238.136,832.536 235.68,841.087 233.856,852.101C232.032,863.115 231.12,874.764 231.12,887.048C231.12,899.227 232.04,910.877 233.879,921.996C235.719,933.115 238.19,941.773 241.292,947.968C244.395,954.164 247.724,957.262 251.278,957.262C254.864,957.262 258.263,954.19 261.475,948.048C264.686,941.905 267.157,933.592 268.888,923.108C270.618,912.624 271.484,900.816 271.484,887.684C271.484,867.669 269.543,850.936 265.66,837.486C261.778,824.036 257,817.311 251.325,817.311Z" style="fill:rgb(44,51,51);fill-rule:nonzero;"/>
        <path d="M327.957,819.22L323.743,834.01C320.237,822.453 316.81,816.675 313.462,816.675C311.333,816.675 309.51,819.061 307.992,823.832C306.474,828.603 305.715,834.169 305.715,840.53C305.715,846.15 306.34,851.504 307.592,856.593C308.843,861.788 311.471,867.884 315.475,874.882C320.355,883.47 323.671,891.74 325.423,899.691C327.144,907.749 328.004,916.814 328.004,926.886C328.004,941.093 326.534,953.127 323.595,962.987C320.656,972.847 316.983,977.777 312.575,977.777C309.636,977.777 306.829,975.604 304.156,971.257C301.484,966.91 299.271,960.92 297.52,953.286L301.641,937.382C304.989,950.211 308.54,956.626 312.295,956.626C314.923,956.626 317.161,953.763 319.007,948.038C320.853,942.313 321.776,935.58 321.776,927.84C321.776,921.479 321.166,915.807 319.946,910.824C318.726,905.947 315.973,899.797 311.687,892.376C307.088,884.318 303.96,876.366 302.302,868.52C300.644,860.675 299.815,851.716 299.815,841.644C299.815,828.497 301.136,817.576 303.778,808.882C306.42,800.189 309.758,795.842 313.792,795.842C318.483,795.842 323.204,803.634 327.957,819.22Z" style="fill:rgb(44,51,51);fill-rule:nonzero;"/>
        <path d="M392.531,915.913L398.057,925.773C396.245,937.86 394.151,947.614 391.777,955.035C389.402,962.457 386.73,968.103 383.762,971.973C380.793,975.842 377.434,977.777 373.685,977.777C365.374,977.777 358.875,968.527 354.188,950.026C349.501,931.525 347.157,910.612 347.157,887.287C347.157,865.34 349.141,845.778 353.109,828.603C358.14,806.762 364.873,795.842 373.309,795.842C381.995,795.842 388.932,807.027 394.118,829.398C397.805,845.195 399.68,864.916 399.742,888.559L353.9,888.559C354.025,908.657 355.916,925.132 359.573,937.984C363.229,950.836 367.746,957.262 373.122,957.262C375.716,957.262 378.24,955.73 380.693,952.667C383.147,949.604 385.233,945.538 386.952,940.469C388.671,935.4 390.531,927.214 392.531,915.913ZM392.531,869.316C391.656,857.441 390.382,847.952 388.71,840.848C387.038,833.745 384.826,828.02 382.076,823.673C379.325,819.326 376.434,817.152 373.403,817.152C368.402,817.152 364.104,822.612 360.51,833.533C357.884,841.485 355.9,853.412 354.556,869.316L392.531,869.316Z" style="fill:rgb(44,51,51);fill-rule:nonzero;"/>
    </g>
</svg>
