<?xml version="1.0" encoding="UTF-8" standalone="no"?>
<!-- Created with Inkscape (http://www.inkscape.org/) -->

<svg
   version="1.1"
   id="svg2"
   xml:space="preserve"
   width="294.38666"
   height="213.62666"
   viewBox="0 0 294.38666 213.62666"
   sodipodi:docname="S4O_SIGNET_KOMPAKT_weiss.eps"
   xmlns:inkscape="http://www.inkscape.org/namespaces/inkscape"
   xmlns:sodipodi="http://sodipodi.sourceforge.net/DTD/sodipodi-0.dtd"
   xmlns="http://www.w3.org/2000/svg"
   xmlns:svg="http://www.w3.org/2000/svg"><defs
     id="defs6" /><sodipodi:namedview
     id="namedview4"
     pagecolor="#ffffff"
     bordercolor="#666666"
     borderopacity="1.0"
     inkscape:pageshadow="2"
     inkscape:pageopacity="0.0"
     inkscape:pagecheckerboard="0" /><g
     id="g8"
     inkscape:groupmode="layer"
     inkscape:label="ink_ext_XXXXXX"
     transform="matrix(1.3333333,0,0,-1.3333333,0,213.62667)"><g
       id="g10"
       transform="scale(0.1)"><path
         d="m 1400.02,634.336 c -96.73,-26.055 -131.38,-35.746 -144.18,-40.555 -6.71,53.242 18.19,492.419 59.82,710.709 4.47,23.44 9.11,46.89 13.76,70.34 77.97,-209.64 173.81,-463.142 251.87,-666.158 l 8.33,-21.387 c -43.03,-13.469 -120.73,-34.394 -189.6,-52.949 z M 1252.6,586.59 v 0 0 z m 954.99,21.992 -28.02,145.07 c -0.85,4.422 -3.65,8.235 -7.63,10.371 -3.96,2.137 -8.69,2.364 -12.85,0.645 L 1715.87,580.711 c -0.21,0.469 -0.37,0.879 -0.59,1.367 l -2.08,4.82 c -7.63,17.86 -20.28,55.27 -24.52,67.985 21.38,9.324 115.28,50.859 145.73,73.586 l 1.46,1.082 0.42,1.765 c 1.57,6.614 0.78,12.024 -2.36,16.079 -5.47,7.046 -16.61,8.218 -27.82,8.425 -47.5,0.762 -118.2,-29.519 -137.72,-38.371 -27.36,77.258 -297.21,839.151 -307.24,861.301 -7.03,15.52 -17.89,20.86 -25.76,22.6 -13.74,3.02 -30.06,-2.12 -43.69,-13.82 -19.25,-16.54 -30.53,-35.34 -33.53,-55.87 -3.98,-27.33 -8.22,-54.63 -12.46,-81.93 -6.64,-42.73 -13.5,-86.92 -19.25,-130.53 l -5.01,-37.99 c -28.64,-216.7 -58.25,-440.78 -51.22,-661.862 0.16,-11.528 1.81,-25.438 3.4,-38.907 1.13,-9.57 2.2,-18.601 2.74,-26.543 0.56,-11.238 8.59,-20.707 19.38,-22.976 4.51,-1.094 10.65,-2.043 14.58,-2.043 0.56,0 1.08,0.019 1.53,0.062 36.29,1.481 71.67,9.957 105.9,18.149 8.58,2.051 17.15,4.109 25.73,6.051 48.27,10.937 96.78,24.679 143.7,37.961 l 23.34,6.609 c 20.36,5.727 80.44,21.039 98.27,25.578 3.27,-14.633 12.98,-52.258 30.52,-74.359 L 1594.9,530.5 c -7.64,-3.191 -11.28,-11.961 -8.1,-19.609 3.18,-7.653 11.92,-11.282 19.61,-8.11 l 102.23,42.438 c 3.92,0.812 7.15,2.011 9.54,3.953 l 435.42,180.73 8.8,-45.543 c -125.72,-88.39 -299.12,-173.57 -515.57,-253.238 -7.79,-2.851 -11.76,-11.473 -8.9,-19.242 2.23,-6.078 7.97,-9.828 14.07,-9.828 1.72,0 3.48,0.289 5.18,0.929 212.71,78.27 384.56,162.071 511.43,249.223 l 8.02,-41.527 C 2163.49,597.961 2124.31,562.77 2048.79,515.512 1960.9,460.52 1804.45,377.48 1558.22,294.238 c -7.85,-2.66 -12.06,-11.16 -9.4,-19.019 2.11,-6.25 7.95,-10.188 14.21,-10.188 1.59,0 3.21,0.25 4.8,0.789 479.94,162.258 629.97,323.071 636.12,329.828 3.19,3.5 4.54,8.297 3.64,12.934"
         style="fill:#ffffff;fill-opacity:1;fill-rule:nonzero;stroke:none"
         id="path12" /><path
         d="m 2017,616.848 c 2.2,0 4.44,0.476 6.54,1.504 l 57.47,27.898 c 7.45,3.621 10.55,12.598 6.94,20.051 -3.61,7.437 -12.58,10.562 -20.05,6.941 l -57.46,-27.898 c -7.45,-3.625 -10.56,-12.602 -6.94,-20.051 2.59,-5.344 7.94,-8.445 13.5,-8.445"
         style="fill:#ffffff;fill-opacity:1;fill-rule:nonzero;stroke:none"
         id="path14" /><path
         d="m 1698.83,480.48 c 1.98,0 4,0.391 5.94,1.231 l 147.09,63.66 c 7.61,3.289 11.11,12.129 7.82,19.731 -3.29,7.597 -12.1,11.109 -19.73,7.808 l -147.09,-63.66 c -7.61,-3.289 -11.1,-12.129 -7.81,-19.73 2.45,-5.661 7.98,-9.04 13.78,-9.04"
         style="fill:#ffffff;fill-opacity:1;fill-rule:nonzero;stroke:none"
         id="path16" /><path
         d="m 258.816,458.969 v 0 0 z M 161.863,337.629 C 144.965,313.52 99.8984,264.281 68.8086,266.32 c 2.4023,6.981 4.3828,14.27 6.2969,21.309 2.832,10.41 5.7617,21.18 10.039,30.871 8.3203,18.801 19.1795,37.43 32.2965,55.352 17.586,24.019 39.071,45.339 59.852,65.937 9.316,9.242 18.633,18.492 27.676,28.012 0.461,0.48 1.23,1.289 1.496,1.461 0.82,-0.242 2.715,-2.871 3.25,-6.024 7.082,-41.66 -31.102,-101.726 -47.852,-125.609 z m 101.77,122.73 -0.156,0.43 c -1.407,3.609 -3.84,6.539 -5.782,8.902 -21.875,26.481 -37.148,40.36 -70.07,52.688 -49.363,15.609 -82.012,-27.348 -108.25,-61.84 -3.1562,-4.141 -6.2305,-8.187 -9.2383,-12 C 38.4844,408.398 15.8398,363.621 2.85156,315.488 c -7.57812,-27.008 0.01953,-56.066 21.98044,-84 10.0508,-12.789 21.1914,-21.898 33.1172,-27.09 8.1914,-3.546 16.0156,-5.078 23.5156,-5.078 25.7302,0 47.6952,18.02 67.5982,34.36 4.656,3.82 9.207,7.558 13.691,10.961 63.055,47.8 102.234,126.437 102.254,205.211 0.012,3.359 -0.086,6.949 -1.375,10.507"
         style="fill:#ffffff;fill-opacity:1;fill-rule:nonzero;stroke:none"
         id="path18" /><path
         d="m 561.875,273.891 c 19.863,29.73 40.711,59.918 74.238,76.898 -3.125,-20.309 -14.707,-41.828 -30.937,-56.738 -9.375,-8.602 -24.055,-18.449 -43.301,-20.16 z m 321.133,86.039 c 0.176,-10.879 -46.985,-101.621 -67.09,-136.809 l -5.07,-8.98 c -4.793,-8.551 -9.754,-17.403 -15.223,-25.7 -5.176,-7.82 -12.246,-15.531 -19.258,-23 0.196,33.707 15.594,74.02 27.156,104.297 l 0.528,1.371 c 16.308,42.672 38.203,78.563 65.117,106.731 0.078,-0.031 0.168,-0.059 0.246,-0.09 4.734,-1.641 12.656,-4.371 13.594,-17.82 z M 977.266,22.8203 c -13.77,8.3516 -42.434,25.7188 -53.457,78.1207 -3.45,16.387 -2.102,43.68 4.011,81.079 5.051,30.839 13.379,61.949 24.778,92.48 2.519,6.77 6.882,15.07 11.504,23.859 11.609,22.09 24.765,47.129 19.746,66.922 -3.789,14.969 -15.129,26.641 -30.305,31.219 -10.234,3.09 -21.035,2.75 -31.004,-0.84 -2.492,5.84 -5.351,12.211 -9.25,17.59 -10.723,14.789 -29.266,25.328 -50.203,28.27 l -1.582,0.011 c -55.949,0 -77.52,-45.761 -93.262,-79.172 -3.437,-7.3 -6.992,-14.859 -10.734,-21.609 -10.371,-18.73 -22.617,-42.73 -32.383,-69.41 -16.184,-11.738 -37.324,-30.449 -57.137,-48.36 -4.277,-3.871 -7.812,-7.058 -10.246,-9.179 -28.965,-25.289 -74.558,-44.582 -118.984,-50.332 -10.184,-1.328 -16.621,-0.028 -19.707,3.91 -2.078,2.691 -2.606,6.812 -2.821,10.09 -0.91,13.84 2.313,28.121 9.083,40.203 2.949,5.269 5.886,8.25 9.011,9.098 4.387,1.23 9.406,-1.5 14.739,-4.36 1.406,-0.762 2.812,-1.5 4.199,-2.191 17.148,-8.438 39.461,-7.848 59.726,1.601 15.418,7.18 29.539,18.66 45.762,37.192 20.086,22.91 31.805,43.347 36.883,64.328 6.594,27.269 0.312,55.031 -16.395,72.441 -18.496,19.27 -49.668,25.848 -79.355,16.828 -22.637,-6.89 -43.985,-21.57 -67.18,-46.23 -14.754,-15.688 -40.84,-46.469 -66.074,-76.219 -26.289,-31.019 -51.113,-60.308 -60.125,-69.012 -16.574,-15.976 -52.227,-32.75 -77.363,-40.398 -23.782,-7.23 -40.813,-7.629 -47.95,-1.148 -4.289,3.886 -5.449,10.91 -3.457,20.859 3.829,19.051 13.68,41.699 30.125,69.238 18.496,30.981 38.711,58.301 58.821,79.391 18.808,19.719 30.996,30.019 38.875,35.25 -1.836,-3.86 -4.551,-8.012 -7.207,-12.078 -8.309,-12.731 -18.653,-28.563 -3.641,-41.102 12.793,-10.672 32.207,-5.39 44.961,2.391 10.34,6.32 18.484,16.051 22.93,27.398 3.035,7.75 4.355,16.332 3.925,25.5 -0.246,5.11 -1.046,10.473 -2.382,15.93 -1.633,6.672 -4.895,14.191 -9.172,21.18 -3.582,5.851 -9.461,10.621 -14.637,14.82 l -2.461,2.012 c -10.266,8.5 -19.785,14.519 -29.121,18.429 -7.023,2.942 -15.285,5.7 -23.059,4.051 -2.832,-0.59 -4.832,-2.269 -6.296,-3.5 -0.43,-0.371 -0.86,-0.742 -1.321,-1.062 -2.285,-1.579 -4.539,-3.18 -6.777,-4.821 -8.934,-6.527 -17.695,-13.547 -26.043,-20.867 C 328.523,417.91 312.715,401.32 298.27,383.301 283.797,365.27 270.313,345.359 258.191,324.121 246.133,303 235.078,279.949 225.34,255.621 c -10.293,-25.699 -7.422,-61.973 7.336,-92.402 12.625,-26.047 31.687,-43.981 53.66,-50.469 74.414,-21.9414 132.109,53.5 167.344,106.879 -1.375,-24.488 1.855,-46.449 9.668,-65.481 12.14,-29.507 36.66,-51.839 64.015,-58.2496 6.367,-1.5 12.684,-2.1796 18.914,-2.1796 33.36,0 64.161,19.4412 85.489,37.3832 19.07,16.058 50.996,48.636 78.41,81.898 -0.676,-4.859 -1.383,-9.719 -1.719,-14.641 -2.492,-36.25 10.418,-71.668 32.879,-90.238 16.848,-13.9296 38.195,-18.0116 61.66,-11.8007 1.406,0.3594 2.707,1.0313 3.887,2.0117 18.164,15.227 29.719,33.809 39.894,52.93 0.106,-24.813 6.778,-53.0237 12.95,-67.4417 C 877.195,43.0703 925.781,7.48047 958.465,1.03906 961.953,0.339844 965.215,0 968.23,0 c 7.325,0 13.196,2.01953 17.247,5.98828 2.375,2.33203 2.648,4.72262 2.461,6.31252 -0.508,4.3711 -4.551,6.8203 -10.672,10.5195"
         style="fill:#ffffff;fill-opacity:1;fill-rule:nonzero;stroke:none"
         id="path20" /><path
         d="m 1362.88,53.3203 c -23.24,-2.5703 -67.38,17.9883 -82.06,34.8789 -0.7,0.8125 -1.41,1.6602 -2.11,2.5391 -49.38,61.7027 -59.85,139.1137 -32.95,243.6207 1.53,5.961 3.85,12.27 6.31,18.942 9.33,25.39 20.94,56.98 -16.1,74.379 -12.15,5.691 -24.84,6.199 -37.68,1.519 -40.09,-14.578 -75.19,-78.168 -98.56,-126.488 4.71,15.148 9.79,29.219 15.3,42.41 1.38,3.289 3.04,6.859 4.79,10.617 9.71,20.891 23,49.5 5.92,70.434 -9.74,11.937 -24.53,19.777 -40.58,21.519 -25.37,2.7 -32.39,-5.472 -39.49,-26.101 -20.14,-58.551 -31.14,-120.981 -39.23,-174.34 -0.55,-3.641 -1.2,-7.629 -1.9,-11.93 -6.349,-38.98 -16.981,-104.218 9.07,-136.5895 9.68,-12.0196 23.54,-18.6016 41.18,-19.5508 24.04,-1.5078 27.65,17.3984 30.48,32.4223 l 0.88,4.546 c 11.68,57.723 37.12,108.723 65.85,159.18 0.12,-15.289 3.18,-31.207 5.99,-45.887 1.16,-6.082 2.3,-11.992 3.17,-17.589 l 1.54,-9.973 c 11.11,-72.27 24.94,-162.2306 114.22,-177.1798 8.95,-1.5078 17.95,-2.0703 26.74,-2.0703 12.14,0 23.88,1.0899 34.51,2.3203 1.31,0.1602 3.11,0.2891 5.2,0.461 14.42,1.1093 27.78,2.6211 32.92,8.6211 5.36,6.2773 4.71,10.9179 3.22,13.707 -2.42,4.5234 -8.49,6.6133 -16.63,5.582"
         style="fill:#ffffff;fill-opacity:1;fill-rule:nonzero;stroke:none"
         id="path22" /><path
         d="m 1580.44,479.059 c -13.97,16.07 -37.65,26.05 -72.38,30.492 -22.5,2.879 -45.72,0.89 -67.18,-5.75 -34.44,-10.653 -66.74,-32.949 -96.01,-66.289 -17.97,-20.492 -32.08,-41.141 -41.93,-61.403 -14.14,-29.007 -6.83,-58.121 19.57,-77.847 8.22,-6.141 25.18,-11.043 44.83,-16.723 29.57,-8.539 70.08,-20.238 65.82,-35.91 -6.44,-23.68 -29.87,-46.199 -49.64,-59.379 -15.2,-10.148 -33.38,-13.578 -49.93,-9.34 -2.4,0.621 -5.85,2.559 -9.17,4.449 -7.1,4 -14.45,8.102 -20.62,5.09 -3.47,-1.699 -5.61,-5.23 -6.36,-10.461 -1.35,-9.386 6.17,-18.429 8.05,-20.386 12.22,-18.204 45.41,-46.352 77.64,-46.34 6.44,0 12.85,1.117 19.03,3.668 52.92,21.8 103.54,85 91.57,140.832 -6,27.898 -29.48,45.09 -49.28,56.937 -12.98,7.781 -27.13,13.903 -40.82,19.821 -11.6,5.011 -22.63,9.781 -32.99,15.46 15.38,30.481 35.24,54.809 59.1,72.379 36.11,26.61 56.71,36.551 90.75,28.903 12.31,-2.762 19.07,-22.032 16.68,-36.774 -0.74,-4.547 -2.96,-12.136 -9.49,-11.429 -2.93,0.312 -5.91,1.5 -9.08,2.769 -2.02,0.801 -4.04,1.602 -6.11,2.231 -8.65,2.632 -16.53,1.07 -21.05,-4.18 -5.2,-6.008 -4.15,-14.391 -1.42,-20.238 4.88,-10.411 15.79,-17.942 28.47,-19.653 10.28,-1.437 21.65,0.871 32.92,6.524 20.73,10.398 37.28,33.058 42.15,57.738 4.13,20.871 -0.52,40.328 -13.12,54.809"
         style="fill:#ffffff;fill-opacity:1;fill-rule:nonzero;stroke:none"
         id="path24" /><path
         d="m 331.25,575.129 c 15.586,-2.207 30.379,-3.309 44.402,-3.309 57.278,0 101.426,18.399 131.575,54.95 60.828,73.738 -11.711,137.285 -64.668,183.687 l -1.711,1.496 c 16.836,12.395 89.922,52.402 187.597,64.512 18.391,2.273 29.16,7.082 31.993,14.277 0.89,2.246 1.75,6.758 -2.422,11.746 -13.125,15.703 -77.227,30.012 -173.184,10.871 -35.234,-7.019 -82.391,-26.945 -109.07,-61.796 -39.668,-51.829 17.363,-99.922 44.843,-123.118 12.168,-10.261 24.708,-20.855 34.012,-32.871 -15.652,-28.844 -48.887,-53.328 -81.953,-60.054 -14.707,-3.059 -56.348,8.875 -98.836,43.933 -29.785,24.578 -79.64,78.152 -78.82,160.742 0.137,14.336 2.949,29.578 8.34,45.325 3.781,11.003 11.144,26.265 24.824,36.503 4.523,3.387 11.359,8.497 10.031,16.446 -2.062,12.312 -33.867,10.515 -34.152,10.469 -22.488,-2.708 -43.672,-13.75 -58.113,-30.305 -33.36,-38.262 -39.844,-88.418 -18.75,-145.059 35.273,-94.719 143.496,-189.863 204.062,-198.445"
         style="fill:#ffffff;fill-opacity:1;fill-rule:nonzero;stroke:none"
         id="path26" /><path
         d="m 611.492,556.922 c 12.453,70.422 34.797,159.125 97.129,225.305 13.867,-12.84 9.434,-25.672 2.414,-45.997 -1.222,-3.527 -2.492,-7.199 -3.711,-11.035 -1.601,-5.047 -3.144,-9.148 -4.863,-12.89 -10.891,-23.711 -29.981,-61.973 -36.145,-73.985 -16.55,-32.324 -32.293,-63.058 -54.636,-89.718 0.019,2.91 0,5.707 -0.188,8.32 z m -20.164,189.926 c -1.465,-3.352 -2.883,-6.653 -4.238,-9.875 -2.414,-5.703 -4.961,-11.575 -7.57,-17.598 -23.055,-53.223 -51.739,-119.453 -37.391,-177.387 l 0.672,-2.429 c 10.929,-24.778 27.812,-54.219 61.758,-61.868 40.527,-9.152 64.414,25.098 81.593,58.84 0.828,-25.691 11.903,-52.109 31.211,-69.75 7.383,-6.75 24.032,-18.5 37.879,-18.5 1.211,0 2.414,0.09 3.574,0.278 5.618,0.929 10.071,4.132 12.883,9.23 2.696,4.922 0.731,10.52 -2.226,19.012 -7.91,22.609 -26.438,75.57 19.316,197.387 2.918,7.753 8.652,17.46 14.734,27.738 17.832,30.176 42.258,71.492 7.227,94.363 -12.898,8.418 -28.992,9.578 -45.77,3.399 -0.156,0.351 -0.304,0.71 -0.46,1.066 -2.696,6.25 -5.489,12.723 -9.715,18.418 -11.516,15.516 -31.262,26.465 -52.805,29.297 l -1.062,0.039 c -57.629,0 -88.848,-54.328 -109.61,-101.66"
         style="fill:#ffffff;fill-opacity:1;fill-rule:nonzero;stroke:none"
         id="path28" /><path
         d="m 879.551,469.078 c 14.597,-11.598 30.859,-17.398 46.738,-17.398 15.731,0 31.082,5.691 44.07,17.101 3.184,2.789 4.621,6.981 3.848,11.199 -0.781,4.282 -3.66,7.739 -7.684,9.258 -9.992,3.774 -21.007,8.692 -22.531,9.711 -9.922,7.871 -12.89,20.391 -16.023,33.641 l -1.242,5.148 c -6.368,25.641 -6.563,52.703 -0.594,82.742 0.976,4.891 2.402,11.122 4.012,18.211 13.144,57.52 22.902,109.903 -1.563,119.122 -15.996,6.035 -38.867,8.789 -55.078,-1.485 -9.539,-6.055 -15.106,-15.89 -16.102,-28.457 -1.191,-15.039 -4.093,-33.098 -7.168,-52.219 -11.632,-72.398 -26.105,-162.523 29.317,-206.574"
         style="fill:#ffffff;fill-opacity:1;fill-rule:nonzero;stroke:none"
         id="path30" /><path
         d="m 912.285,783.164 c 0.43,-0.012 0.848,-0.019 1.27,-0.019 36.804,0.007 47.168,42.785 53.379,68.457 l 0.769,3.171 c 3.899,15.942 -2.031,29.106 -16.258,36.125 -22.375,11.036 -58.183,4.61 -72.285,-12.949 -6.965,-8.672 -10.898,-21.179 -11.074,-35.222 -0.363,-28.301 15,-58.782 44.199,-59.563"
         style="fill:#ffffff;fill-opacity:1;fill-rule:nonzero;stroke:none"
         id="path32" /><path
         d="m 1006.43,603.262 0.34,-2 c 4.95,-29.852 10.07,-60.731 18.37,-90.672 0.92,-3.34 1.88,-6.649 2.89,-9.969 1.96,-6.422 4.08,-12.609 8.39,-17.891 5.64,-6.91 11.28,-8.851 15.84,-8.851 1.49,0 2.86,0.199 4.08,0.512 12.48,3.168 21.07,20.238 23.19,31.339 1.67,8.75 0.3,17.45 -1.02,25.872 -0.37,2.257 -0.72,4.5 -1,6.718 -2.13,16.469 -3.98,33.219 -5.49,49.782 -4.58,50.328 -6.59,103.832 -5.99,159.039 1.55,138.992 19.45,285.559 53.2,435.609 0.25,1.11 0.64,2.19 1.02,3.27 0.91,2.62 1.96,5.6 1.73,9.05 -0.84,12.9 -8.81,22.86 -22.44,28.04 -18.01,6.84 -41.86,3.28 -53.12,-7.9 l -2,-1.96 -0.69,-2.72 c -23.34,-92.84 -38.19,-193.77 -44.152,-299.983 -5.469,-97.371 -8.562,-201.106 5.682,-299.942 0.35,-2.453 0.76,-4.902 1.17,-7.343"
         style="fill:#ffffff;fill-opacity:1;fill-rule:nonzero;stroke:none"
         id="path34" /></g></g></svg>
